M48
; DRILL file KiCad 10.0.4 date 2026-08-24T02:01:33
; FORMAT={-:-/ absolute / metric / decimal}
; #@! TF.CreationDate,2026-08-24T02:01:33+01:00
; #@! TF.GenerationSoftware,Kicad,Pcbnew,10.0.4
; #@! TF.FileFunction,MixedPlating,1,2
FMAT,2
METRIC
; #@! TA.AperFunction,Plated,PTH,ViaDrill
T1C0.300
; #@! TA.AperFunction,Plated,PTH,ComponentDrill
T2C0.600
; #@! TA.AperFunction,Plated,PTH,ComponentDrill
T3C1.000
; #@! TA.AperFunction,NonPlated,NPTH,ComponentDrill
T4C0.650
%
G90
G05
T1
X72.666Y-70.27
X73.006Y-69.475
X73.026Y-68.205
X74.2Y-68.675
X82.1Y-74.9
X91.15Y-62.875
X95.375Y-66.275
X95.4Y-62.85
X105.225Y-68.725
X111.709Y-63.473
X114.329Y-64.154
X119.2Y-62.075
X121.725Y-64.075
X143.5Y-67.775
T3
X135.33Y-65.18
X137.87Y-65.18
X140.41Y-65.18
X142.95Y-65.18
T4
X65.525Y-66.53
X65.525Y-72.31
T2
G00X64.445Y-65.1
M15
G01X65.545Y-65.1
M16
G05
G00X64.445Y-73.74
M15
G01X65.545Y-73.74
M16
G05
G00X68.875Y-65.1
M15
G01X69.475Y-65.1
M16
G05
G00X68.875Y-73.74
M15
G01X69.475Y-73.74
M16
G05
M30
